<svg width="70" height="70" viewBox="0 0 70 70" fill="none" xmlns="http://www.w3.org/2000/svg">
  <circle cx="35" cy="35" r="35" fill="#E6F7FF" />
  <path d="M51 35.5C51 31.3579 47.6421 28 43.5 28C43.2033 28 42.9116 28.0168 42.625 28.0498C41.6736 24.1296 38.1597 21.25 34 21.25C29.1692 21.25 25.25 25.1692 25.25 30C25.25 30.0887 25.251 30.1772 25.2529 30.2654C21.7041 30.8882 19 33.9329 19 37.625C19 41.7671 22.3579 45.125 26.5 45.125H47.75C49.5449 45.125 51 43.6699 51 41.875C51 40.4648 50.1202 39.2529 48.893 38.8025C50.2305 38.0264 51 36.646 51 35.5Z" fill="#3182CE"/>
  <path d="M34 25.25C31.5147 25.25 29.5 27.2647 29.5 29.75C29.5 32.2353 31.5147 34.25 34 34.25C36.4853 34.25 38.5 32.2353 38.5 29.75C38.5 27.2647 36.4853 25.25 34 25.25Z" fill="white"/>
  <path d="M33.5 34.5V48.5M33.5 48.5L40 42M33.5 48.5L27 42" stroke="#3182CE" stroke-width="2" stroke-linecap="round" stroke-linejoin="round"/>
</svg> 