<svg width="70" height="70" viewBox="0 0 70 70" fill="none" xmlns="http://www.w3.org/2000/svg">
  <circle cx="35" cy="35" r="35" fill="#E6F7FF" />
  <path d="M35 20C30.0294 20 26 24.0294 26 29C26 33.9706 30.0294 38 35 38C39.9706 38 44 33.9706 44 29C44 24.0294 39.9706 20 35 20ZM35 36C31.1342 36 28 32.8658 28 29C28 25.1342 31.1342 22 35 22C38.8658 22 42 25.1342 42 29C42 32.8658 38.8658 36 35 36Z" fill="#3182CE"/>
  <path d="M35 36C28.3726 36 23 41.3726 23 48V50H25V48C25 42.4771 29.4772 38 35 38C40.5229 38 45 42.4771 45 48V50H47V48C47 41.3726 41.6274 36 35 36Z" fill="#3182CE"/>
  <path d="M45 42H47V46H51V48H47V52H45V48H41V46H45V42Z" fill="#3182CE"/>
</svg> 