<svg width="50" height="50" viewBox="0 0 50 50" fill="none" xmlns="http://www.w3.org/2000/svg">
  <path d="M25 4.16667C17.0417 4.16667 10.4167 10.7917 10.4167 18.75C10.4167 24.375 13.75 29.1667 18.75 31.25V35.4167C18.75 36.0417 19.2917 36.4583 19.7917 36.4583H30.2083C30.8333 36.4583 31.25 36.0417 31.25 35.4167V31.25C36.25 29.1667 39.5833 24.375 39.5833 18.75C39.5833 10.7917 32.9583 4.16667 25 4.16667Z" fill="#E6F0FF"/>
  <path d="M25 8.33333C19.375 8.33333 14.5833 13.125 14.5833 18.75C14.5833 22.9167 17.0833 26.4583 20.8333 27.9167V31.25H29.1667V27.9167C32.9167 26.4583 35.4167 22.9167 35.4167 18.75C35.4167 13.125 30.625 8.33333 25 8.33333Z" fill="#2563EB"/>
  <path d="M25 12.5C21.6667 12.5 18.75 15.4167 18.75 18.75C18.75 21.4583 20.625 23.75 23.125 24.5833V27.0833H26.875V24.5833C29.375 23.75 31.25 21.4583 31.25 18.75C31.25 15.4167 28.3333 12.5 25 12.5Z" fill="#1D4ED8"/>
  <path d="M20.8333 39.5833H29.1667V41.6667H20.8333V39.5833Z" fill="#2563EB"/>
  <path d="M20.8333 43.75H29.1667V45.8333H20.8333V43.75Z" fill="#2563EB"/>
</svg> 