<svg width="50" height="50" viewBox="0 0 50 50" fill="none" xmlns="http://www.w3.org/2000/svg">
  <path d="M41.6667 16.6667H33.3333C32.0833 16.6667 31.25 17.5 31.25 18.75V22.9167H18.75V18.75C18.75 17.5 17.9167 16.6667 16.6667 16.6667H8.33333C7.08333 16.6667 6.25 17.5 6.25 18.75V35.4167C6.25 36.6667 7.08333 37.5 8.33333 37.5H16.6667C17.9167 37.5 18.75 36.6667 18.75 35.4167V31.25H31.25V35.4167C31.25 36.6667 32.0833 37.5 33.3333 37.5H41.6667C42.9167 37.5 43.75 36.6667 43.75 35.4167V18.75C43.75 17.5 42.9167 16.6667 41.6667 16.6667Z" fill="#E6F0FF"/>
  <path d="M37.5 20.8333H33.3333V33.3333H37.5V20.8333Z" fill="#2563EB"/>
  <path d="M16.6667 20.8333H12.5V33.3333H16.6667V20.8333Z" fill="#2563EB"/>
  <path d="M31.25 25H18.75V29.1667H31.25V25Z" fill="#1D4ED8"/>
</svg> 