<svg width="50" height="50" viewBox="0 0 50 50" fill="none" xmlns="http://www.w3.org/2000/svg">
  <path d="M25 2.08334C18.75 7.29168 11.4583 9.37501 3.125 9.37501V27.0833C3.125 35.4167 8.95833 43.125 25 47.9167C41.0417 43.125 46.875 35.4167 46.875 27.0833V9.37501C38.5417 9.37501 31.25 7.29168 25 2.08334Z" fill="#E6F0FF"/>
  <path d="M25 6.25001C20.625 10.4167 15.2083 12.5 8.33334 12.5V27.0833C8.33334 33.75 12.9167 39.5833 25 43.75C37.0833 39.5833 41.6667 33.75 41.6667 27.0833V12.5C34.7917 12.5 29.375 10.4167 25 6.25001Z" fill="#2563EB"/>
  <path d="M25 11.4583C21.0417 15.2083 16.25 16.6667 10.4167 16.6667V27.0833C10.4167 32.5 14.5833 37.5 25 41.25C35.4167 37.5 39.5833 32.5 39.5833 27.0833V16.6667C33.75 16.6667 28.9583 15.2083 25 11.4583Z" fill="#1D4ED8"/>
  <path d="M19.7917 30.2083L15.625 26.0417L17.7083 23.9583L19.7917 26.0417L27.0833 18.75L29.1667 20.8333L19.7917 30.2083Z" fill="white"/>
</svg> 