<svg width="24" height="24" viewBox="0 0 24 24" fill="none" xmlns="http://www.w3.org/2000/svg">
  <path d="M20 10C20 7.93 19.3 6.04 18.12 4.56C16.37 2.31 13.37 1 10 1C6.63 1 3.63 2.31 1.88 4.56C0.7 6.04 0 7.93 0 10C0 14.42 3.58 18 8 18H9V22.5C9 22.7 9.13 22.88 9.31 22.95C9.48 23.02 9.69 22.99 9.83 22.83C12.34 19.67 20 10.25 20 10Z" fill="#3b82f6"/>
  <path d="M14 4.5C11.5 4.5 10 6 10 8.5H12C12 7.4 12.4 6.5 14 6.5C15.6 6.5 16 7.4 16 8.5C16 10 14.5 10.38 14.15 11.53C14.07 11.83 14.02 12.15 14 12.5H16C16.02 12.25 16.05 12.02 16.1 11.8C16.5 10.75 18 10 18 8.5C18 6 16.5 4.5 14 4.5ZM15 13.5H13V15.5H15V13.5Z" fill="white"/>
</svg> 